<mxfile host="drawio-plugin" modified="2023-12-28T08:04:15.994Z" agent="5.0 (Windows NT 6.2; Win64; x64) AppleWebKit/537.36 (KHTML, like Gecko) Chrome/104.0.5112.102 Safari/537.36" etag="m6lf5OFwefBESVnkq56C" version="20.5.3" type="embed"><diagram id="f3UuzY8pM-iCAZF-LdY3" name="Сторінка-1"><mxGraphModel dx="1292" dy="527" grid="1" gridSize="10" guides="1" tooltips="1" connect="1" arrows="1" fold="1" page="0" pageScale="1" pageWidth="827" pageHeight="1169" background="none" math="0" shadow="0"><root><mxCell id="0"/><mxCell id="1" parent="0"/><mxCell id="e-9pmOV4Egj6Z-eGIl2M-47" style="edgeStyle=orthogonalEdgeStyle;rounded=0;orthogonalLoop=1;jettySize=auto;html=1;entryX=0.5;entryY=0;entryDx=0;entryDy=0;" parent="1" source="e-9pmOV4Egj6Z-eGIl2M-35" target="e-9pmOV4Egj6Z-eGIl2M-36" edge="1"><mxGeometry relative="1" as="geometry"/></mxCell><mxCell id="e-9pmOV4Egj6Z-eGIl2M-35" value="Початок" style="ellipse;whiteSpace=wrap;html=1;" parent="1" vertex="1"><mxGeometry x="527.5" y="30" width="170" height="50" as="geometry"/></mxCell><mxCell id="e-9pmOV4Egj6Z-eGIl2M-50" style="edgeStyle=orthogonalEdgeStyle;rounded=0;orthogonalLoop=1;jettySize=auto;html=1;entryX=0.5;entryY=0;entryDx=0;entryDy=0;" parent="1" source="e-9pmOV4Egj6Z-eGIl2M-36" target="e-9pmOV4Egj6Z-eGIl2M-39" edge="1"><mxGeometry relative="1" as="geometry"/></mxCell><mxCell id="e-9pmOV4Egj6Z-eGIl2M-36" value="&lt;div style=&quot;&quot;&gt;&lt;span style=&quot;background-color: initial;&quot;&gt;Введення:&lt;/span&gt;&lt;/div&gt;&lt;div style=&quot;&quot;&gt;&lt;span style=&quot;background-color: initial;&quot;&gt;int [] arrayInteger;&lt;/span&gt;&lt;/div&gt;&lt;div style=&quot;&quot;&gt;&lt;span style=&quot;background-color: initial;&quot;&gt;int step;&lt;/span&gt;&lt;/div&gt;&lt;div style=&quot;&quot;&gt;&lt;span style=&quot;background-color: initial;&quot;&gt;int length;&lt;/span&gt;&lt;/div&gt;" style="shape=parallelogram;perimeter=parallelogramPerimeter;whiteSpace=wrap;html=1;fixedSize=1;align=center;" parent="1" vertex="1"><mxGeometry x="502.5" y="110" width="220" height="70" as="geometry"/></mxCell><mxCell id="e-9pmOV4Egj6Z-eGIl2M-44" style="edgeStyle=orthogonalEdgeStyle;rounded=0;orthogonalLoop=1;jettySize=auto;html=1;entryX=0.5;entryY=0;entryDx=0;entryDy=0;" parent="1" source="e-9pmOV4Egj6Z-eGIl2M-39" target="e-9pmOV4Egj6Z-eGIl2M-40" edge="1"><mxGeometry relative="1" as="geometry"/></mxCell><mxCell id="e-9pmOV4Egj6Z-eGIl2M-39" value="length = scanner.nextInt();&lt;br&gt;arrayInteger = new int[length];" style="rounded=0;whiteSpace=wrap;html=1;" parent="1" vertex="1"><mxGeometry x="525" y="210" width="175" height="90" as="geometry"/></mxCell><mxCell id="e-9pmOV4Egj6Z-eGIl2M-46" style="edgeStyle=orthogonalEdgeStyle;rounded=0;orthogonalLoop=1;jettySize=auto;html=1;entryX=0.5;entryY=0;entryDx=0;entryDy=0;" parent="1" source="e-9pmOV4Egj6Z-eGIl2M-40" target="e-9pmOV4Egj6Z-eGIl2M-43" edge="1"><mxGeometry relative="1" as="geometry"/></mxCell><mxCell id="e-9pmOV4Egj6Z-eGIl2M-54" style="edgeStyle=orthogonalEdgeStyle;rounded=0;orthogonalLoop=1;jettySize=auto;html=1;endArrow=none;endFill=0;" parent="1" source="e-9pmOV4Egj6Z-eGIl2M-40" edge="1"><mxGeometry relative="1" as="geometry"><mxPoint x="920" y="400" as="targetPoint"/></mxGeometry></mxCell><mxCell id="e-9pmOV4Egj6Z-eGIl2M-40" value="int i=0;length;1" style="shape=hexagon;perimeter=hexagonPerimeter2;whiteSpace=wrap;html=1;fixedSize=1;" parent="1" vertex="1"><mxGeometry x="552.5" y="360" width="120" height="80" as="geometry"/></mxCell><mxCell id="e-9pmOV4Egj6Z-eGIl2M-51" style="edgeStyle=orthogonalEdgeStyle;rounded=0;orthogonalLoop=1;jettySize=auto;html=1;endArrow=none;endFill=0;" parent="1" source="e-9pmOV4Egj6Z-eGIl2M-43" edge="1"><mxGeometry relative="1" as="geometry"><mxPoint x="390" y="400" as="targetPoint"/></mxGeometry></mxCell><mxCell id="e-9pmOV4Egj6Z-eGIl2M-43" value="&lt;div style=&quot;font-family: &amp;quot;JetBrains Mono&amp;quot;, monospace;&quot;&gt;&lt;pre style=&quot;&quot;&gt;&lt;font color=&quot;#ffffff&quot;&gt;arrayInteger[i] = (int) (Math.&lt;span style=&quot;font-style: italic;&quot;&gt;random&lt;/span&gt;() * 10);&lt;/font&gt;&lt;/pre&gt;&lt;/div&gt;" style="rounded=0;whiteSpace=wrap;html=1;" parent="1" vertex="1"><mxGeometry x="460" y="490" width="305" height="80" as="geometry"/></mxCell><mxCell id="e-9pmOV4Egj6Z-eGIl2M-53" value="" style="edgeStyle=none;orthogonalLoop=1;jettySize=auto;html=1;rounded=0;" parent="1" edge="1"><mxGeometry width="100" relative="1" as="geometry"><mxPoint x="390" y="399.55" as="sourcePoint"/><mxPoint x="550" y="400" as="targetPoint"/><Array as="points"/></mxGeometry></mxCell><mxCell id="e-9pmOV4Egj6Z-eGIl2M-55" value="" style="edgeStyle=none;orthogonalLoop=1;jettySize=auto;html=1;rounded=0;endArrow=none;endFill=0;" parent="1" edge="1"><mxGeometry width="100" relative="1" as="geometry"><mxPoint x="920" y="399.55" as="sourcePoint"/><mxPoint x="920" y="640" as="targetPoint"/><Array as="points"/></mxGeometry></mxCell><mxCell id="e-9pmOV4Egj6Z-eGIl2M-56" value="" style="edgeStyle=none;orthogonalLoop=1;jettySize=auto;html=1;rounded=0;endArrow=none;endFill=0;" parent="1" edge="1"><mxGeometry width="100" relative="1" as="geometry"><mxPoint x="920" y="640" as="sourcePoint"/><mxPoint x="600" y="640" as="targetPoint"/><Array as="points"/></mxGeometry></mxCell><mxCell id="e-9pmOV4Egj6Z-eGIl2M-57" value="" style="edgeStyle=none;orthogonalLoop=1;jettySize=auto;html=1;rounded=0;" parent="1" edge="1"><mxGeometry width="100" relative="1" as="geometry"><mxPoint x="600.5" y="640" as="sourcePoint"/><mxPoint x="600" y="690" as="targetPoint"/><Array as="points"/></mxGeometry></mxCell><mxCell id="e-9pmOV4Egj6Z-eGIl2M-65" style="edgeStyle=orthogonalEdgeStyle;rounded=0;orthogonalLoop=1;jettySize=auto;html=1;entryX=0.5;entryY=0;entryDx=0;entryDy=0;" parent="1" source="e-9pmOV4Egj6Z-eGIl2M-58" target="e-9pmOV4Egj6Z-eGIl2M-60" edge="1"><mxGeometry relative="1" as="geometry"/></mxCell><mxCell id="e-9pmOV4Egj6Z-eGIl2M-58" value="Введення:&lt;br&gt;int value;&lt;br&gt;int index;" style="shape=parallelogram;perimeter=parallelogramPerimeter;whiteSpace=wrap;html=1;fixedSize=1;" parent="1" vertex="1"><mxGeometry x="500" y="800" width="190" height="70" as="geometry"/></mxCell><mxCell id="e-9pmOV4Egj6Z-eGIl2M-59" value="&lt;div style=&quot;font-family: &amp;quot;JetBrains Mono&amp;quot;, monospace;&quot;&gt;&lt;pre style=&quot;&quot;&gt;Arrays.sort(arrayInteger);&lt;/pre&gt;&lt;/div&gt;" style="whiteSpace=wrap;html=1;" parent="1" vertex="1"><mxGeometry x="490" y="670" width="220" height="60" as="geometry"/></mxCell><mxCell id="e-9pmOV4Egj6Z-eGIl2M-85" style="edgeStyle=orthogonalEdgeStyle;rounded=0;orthogonalLoop=1;jettySize=auto;html=1;entryX=0.5;entryY=0;entryDx=0;entryDy=0;" parent="1" source="e-9pmOV4Egj6Z-eGIl2M-60" target="e-9pmOV4Egj6Z-eGIl2M-66" edge="1"><mxGeometry relative="1" as="geometry"/></mxCell><mxCell id="e-9pmOV4Egj6Z-eGIl2M-60" value="&lt;div style=&quot;font-family: &amp;quot;JetBrains Mono&amp;quot;, monospace;&quot;&gt;&lt;pre style=&quot;&quot;&gt;value = scanner.nextInt();&lt;br&gt;index = binarySearch(arrayInteger,value);&lt;/pre&gt;&lt;/div&gt;" style="whiteSpace=wrap;html=1;" parent="1" vertex="1"><mxGeometry x="455" y="900" width="280" height="90" as="geometry"/></mxCell><mxCell id="e-9pmOV4Egj6Z-eGIl2M-64" style="edgeStyle=orthogonalEdgeStyle;rounded=0;orthogonalLoop=1;jettySize=auto;html=1;entryX=0.5;entryY=0;entryDx=0;entryDy=0;" parent="1" source="e-9pmOV4Egj6Z-eGIl2M-59" target="e-9pmOV4Egj6Z-eGIl2M-58" edge="1"><mxGeometry relative="1" as="geometry"/></mxCell><mxCell id="e-9pmOV4Egj6Z-eGIl2M-67" style="edgeStyle=orthogonalEdgeStyle;rounded=0;orthogonalLoop=1;jettySize=auto;html=1;endArrow=none;endFill=0;" parent="1" source="e-9pmOV4Egj6Z-eGIl2M-66" edge="1"><mxGeometry relative="1" as="geometry"><mxPoint x="440" y="1120" as="targetPoint"/></mxGeometry></mxCell><mxCell id="e-9pmOV4Egj6Z-eGIl2M-66" value="index&amp;gt;0" style="rhombus;whiteSpace=wrap;html=1;" parent="1" vertex="1"><mxGeometry x="547.5" y="1080" width="95" height="80" as="geometry"/></mxCell><mxCell id="e-9pmOV4Egj6Z-eGIl2M-68" style="edgeStyle=orthogonalEdgeStyle;rounded=0;orthogonalLoop=1;jettySize=auto;html=1;" parent="1" edge="1"><mxGeometry relative="1" as="geometry"><mxPoint x="440" y="1180" as="targetPoint"/><mxPoint x="440" y="1120" as="sourcePoint"/></mxGeometry></mxCell><mxCell id="e-9pmOV4Egj6Z-eGIl2M-72" style="edgeStyle=orthogonalEdgeStyle;rounded=0;orthogonalLoop=1;jettySize=auto;html=1;" parent="1" edge="1"><mxGeometry relative="1" as="geometry"><mxPoint x="750" y="1180" as="targetPoint"/><mxPoint x="750" y="1120" as="sourcePoint"/></mxGeometry></mxCell><mxCell id="e-9pmOV4Egj6Z-eGIl2M-73" style="edgeStyle=orthogonalEdgeStyle;rounded=0;orthogonalLoop=1;jettySize=auto;html=1;endArrow=none;endFill=0;" parent="1" edge="1"><mxGeometry relative="1" as="geometry"><mxPoint x="642.5" y="1119.67" as="targetPoint"/><mxPoint x="750.5" y="1119.67" as="sourcePoint"/></mxGeometry></mxCell><mxCell id="e-9pmOV4Egj6Z-eGIl2M-79" style="edgeStyle=orthogonalEdgeStyle;rounded=0;orthogonalLoop=1;jettySize=auto;html=1;exitX=0.5;exitY=1;exitDx=0;exitDy=0;endArrow=none;endFill=0;" parent="1" source="e-9pmOV4Egj6Z-eGIl2M-75" edge="1"><mxGeometry relative="1" as="geometry"><mxPoint x="600" y="1260" as="targetPoint"/><Array as="points"><mxPoint x="439" y="1260"/></Array></mxGeometry></mxCell><mxCell id="e-9pmOV4Egj6Z-eGIl2M-75" value="Виведення:&lt;br&gt;index" style="shape=parallelogram;perimeter=parallelogramPerimeter;whiteSpace=wrap;html=1;fixedSize=1;" parent="1" vertex="1"><mxGeometry x="340" y="1180" width="197.5" height="60" as="geometry"/></mxCell><mxCell id="e-9pmOV4Egj6Z-eGIl2M-78" style="edgeStyle=orthogonalEdgeStyle;rounded=0;orthogonalLoop=1;jettySize=auto;html=1;exitX=0.5;exitY=1;exitDx=0;exitDy=0;endArrow=none;endFill=0;" parent="1" source="e-9pmOV4Egj6Z-eGIl2M-76" edge="1"><mxGeometry relative="1" as="geometry"><mxPoint x="600" y="1260" as="targetPoint"/><Array as="points"><mxPoint x="751" y="1260"/></Array></mxGeometry></mxCell><mxCell id="e-9pmOV4Egj6Z-eGIl2M-76" value="Виведення:&lt;br&gt;такого значення не має в масиві&amp;nbsp;" style="shape=parallelogram;perimeter=parallelogramPerimeter;whiteSpace=wrap;html=1;fixedSize=1;" parent="1" vertex="1"><mxGeometry x="642.5" y="1180" width="217.5" height="60" as="geometry"/></mxCell><mxCell id="e-9pmOV4Egj6Z-eGIl2M-84" style="edgeStyle=orthogonalEdgeStyle;rounded=0;orthogonalLoop=1;jettySize=auto;html=1;entryX=0.5;entryY=0;entryDx=0;entryDy=0;" parent="1" source="e-9pmOV4Egj6Z-eGIl2M-77" target="e-9pmOV4Egj6Z-eGIl2M-83" edge="1"><mxGeometry relative="1" as="geometry"/></mxCell><mxCell id="e-9pmOV4Egj6Z-eGIl2M-77" value="Виведення:&lt;br&gt;step" style="shape=parallelogram;perimeter=parallelogramPerimeter;whiteSpace=wrap;html=1;fixedSize=1;" parent="1" vertex="1"><mxGeometry x="490" y="1300" width="197.5" height="60" as="geometry"/></mxCell><mxCell id="e-9pmOV4Egj6Z-eGIl2M-80" value="" style="edgeStyle=none;orthogonalLoop=1;jettySize=auto;html=1;rounded=0;entryX=0.557;entryY=-0.007;entryDx=0;entryDy=0;entryPerimeter=0;" parent="1" target="e-9pmOV4Egj6Z-eGIl2M-77" edge="1"><mxGeometry width="100" relative="1" as="geometry"><mxPoint x="600" y="1260" as="sourcePoint"/><mxPoint x="660" y="1230" as="targetPoint"/><Array as="points"/></mxGeometry></mxCell><mxCell id="e-9pmOV4Egj6Z-eGIl2M-83" value="Кінець" style="ellipse;whiteSpace=wrap;html=1;" parent="1" vertex="1"><mxGeometry x="503.75" y="1410" width="170" height="50" as="geometry"/></mxCell><mxCell id="e-9pmOV4Egj6Z-eGIl2M-86" value="ні" style="text;html=1;align=center;verticalAlign=middle;resizable=0;points=[];autosize=1;strokeColor=none;fillColor=none;" parent="1" vertex="1"><mxGeometry x="635" y="1088" width="30" height="30" as="geometry"/></mxCell><mxCell id="e-9pmOV4Egj6Z-eGIl2M-87" value="так" style="text;html=1;align=center;verticalAlign=middle;resizable=0;points=[];autosize=1;strokeColor=none;fillColor=none;" parent="1" vertex="1"><mxGeometry x="520" y="1088" width="40" height="30" as="geometry"/></mxCell></root></mxGraphModel></diagram></mxfile>